<svg xmlns="http://www.w3.org/2000/svg" width="375" height="375"><defs><clipPath id="a"><path transform="scale(.24)" d="M0 0h1562.5v1593.75H0Z" clip-rule="evenodd"/></clipPath><clipPath id="b"><path transform="scale(.24)" d="M0 0h1562.5v1562.5H0Z" clip-rule="evenodd"/></clipPath><clipPath id="c"><path transform="scale(.24)" d="M0 0h1562.5v1562.5H0Z" clip-rule="evenodd"/></clipPath><clipPath id="d"><path transform="scale(.24)" d="M0 0h1562.5v1562.5H0Z" clip-rule="evenodd"/></clipPath></defs><g clip-path="url(#a)" fill="#fff"><path d="M0 0h375v382.5H0Z"/><path d="M0 0h375v375H0Z"/></g><g clip-path="url(#b)"><path d="M0 0h375v375H0Z" fill="#fff"/></g><g clip-path="url(#c)"><path d="M-8.433-11.993h472.335v472.334H-8.433Z"/></g><g clip-path="url(#d)" fill="#fff" font-size="24"><text xml:space="preserve" transform="matrix(.42397 0 0 .42397 83.392 193.354)" font-family="CormorantSC"><tspan y="24" x="57.015626 91.91156 120.327518 148.19147 174.30344 194.89542 216.8554 243.71135 264.30335 294.1593 322.57527 348.59123 374.60719 400.71916 429.3991">Make it happen.</tspan></text><text xml:space="preserve" transform="matrix(1.18977 0 0 1.18977 79.354 154.648)" font-family="CormorantGaramond" font-weight="bold"><tspan y="21" x="1.34375 34.991704 67.319667 98.95163 126.2876 162.04755">ZEFIRO</tspan></text></g></svg>